<svg width="32" height="32" viewBox="0 0 32 32" fill="none" xmlns="http://www.w3.org/2000/svg">
<path d="M30.5292 11.7737H23.3527L18.3078 2.04639C18.1269 1.69764 17.8211 1.44021 17.4466 1.32146C17.0721 1.20271 16.6738 1.23696 16.3251 1.41783C16.2038 1.48071 16.0953 1.55846 16 1.64739C15.9046 1.55852 15.7961 1.48071 15.6749 1.41783C15.3262 1.23696 14.9278 1.20277 14.5533 1.32146C14.1788 1.44014 13.873 1.69764 13.6921 2.04639L8.3745 12.2996C8.19363 12.6484 8.15938 13.0467 8.27812 13.4212C8.31862 13.549 8.3765 13.6681 8.4475 13.7777H1.47075C1.17669 13.7777 0.9375 13.5385 0.9375 13.2445C0.9375 12.9505 1.17675 12.7112 1.47075 12.7112H6.81481C7.07369 12.7112 7.28356 12.5014 7.28356 12.2425C7.28356 11.9836 7.07369 11.7737 6.81481 11.7737H1.47075C0.659812 11.7737 0 12.4335 0 13.2445C0 13.917 0.453875 14.4851 1.07131 14.6596L3.78625 29.139C3.96094 30.071 4.776 30.7475 5.72425 30.7475H26.2758C27.2241 30.7475 28.0391 30.071 28.2138 29.139L30.9287 14.6596C31.5461 14.4851 32 13.917 32 13.2445C32 12.4335 31.3402 11.7737 30.5292 11.7737ZM16.7567 2.25014C16.8831 2.18458 17.0276 2.17214 17.1633 2.21521C17.2991 2.25821 17.41 2.35158 17.4756 2.47802L22.7932 12.7313C22.8588 12.8578 22.8712 13.0022 22.8281 13.138C22.7851 13.2738 22.6917 13.3846 22.5653 13.4502C22.4389 13.5158 22.2944 13.5282 22.1586 13.4852C22.0228 13.4422 21.9119 13.3488 21.8464 13.2224L16.5288 2.96902C16.3934 2.70802 16.4957 2.38552 16.7567 2.25014ZM22.9987 14.7153L22.5551 19.2889H16.4688V14.7153H22.9987ZM16 3.98564L21.0142 13.6539C21.0364 13.6966 21.0605 13.7379 21.0863 13.7777H10.9137C10.9395 13.7379 10.9636 13.6966 10.9858 13.654L11.4747 12.7113H18.6094C18.8682 12.7113 19.0781 12.5015 19.0781 12.2425C19.0781 11.9836 18.8682 11.7738 18.6094 11.7738H11.9609L16 3.98564ZM9.20675 12.7313L14.5244 2.47796C14.59 2.35152 14.7009 2.25814 14.8367 2.21514C14.8898 2.19827 14.9443 2.18996 14.9984 2.18996C15.0828 2.18996 15.1664 2.21021 15.2433 2.25008C15.5043 2.38552 15.6066 2.70796 15.4712 2.96896L10.1535 13.2223C10.0879 13.3487 9.97706 13.4421 9.84125 13.4851C9.70556 13.5281 9.56112 13.5157 9.43462 13.4501C9.30819 13.3845 9.21481 13.2736 9.17181 13.1378C9.12875 13.0021 9.14119 12.8578 9.20675 12.7313ZM2.03556 14.7153H8.05944L8.503 19.2889H2.89313L2.03556 14.7153ZM3.06894 20.2263H8.59394L9.0375 24.7999H3.92644L3.06894 20.2263ZM5.72419 29.81C5.22681 29.81 4.79931 29.4552 4.70769 28.9663L4.10225 25.7374H9.12838L9.52337 29.81H5.72419ZM15.5312 29.81H10.4652L10.0702 25.7374H15.5312V29.81ZM15.5312 24.7999H9.97931L9.53575 20.2263H15.5312V24.7999ZM15.5312 19.2889H9.44487L9.00131 14.7153H15.5312V19.2889ZM21.5348 29.81H16.4688V25.7374H21.9298L21.5348 29.81ZM22.0207 24.8H16.4688V20.2264H22.4643L22.0207 24.8ZM27.2923 28.9663C27.2007 29.4552 26.7731 29.81 26.2757 29.81H22.4766L22.8716 25.7374H27.8978L27.2923 28.9663ZM28.0736 24.8H22.9626L23.4061 20.2264H28.9311L28.0736 24.8ZM29.1069 19.2888H23.4971L23.9406 14.7152H29.9644L29.1069 19.2888ZM30.5292 13.7778H30.5216C30.5213 13.7778 30.5211 13.7778 30.5208 13.7778H23.5525C23.6235 13.6682 23.6813 13.5491 23.7219 13.4213C23.7958 13.188 23.8104 12.9453 23.7671 12.7113H30.5292C30.8233 12.7113 31.0625 12.9505 31.0625 13.2445C31.0625 13.5385 30.8232 13.7778 30.5292 13.7778Z" fill="#688800"/>
</svg>
