<svg width="37" height="81" viewBox="0 0 37 81" fill="none" xmlns="http://www.w3.org/2000/svg">
<path d="M12.2005 51.3551V41.1392H12.8753V51.3551H12.2005ZM15.7469 19.4682L16.3683 19.7648L16.2874 19.965L16.1977 20.1606L16.1006 20.3501L15.9958 20.535L15.8851 20.715L15.7685 20.891L15.6465 21.0627L15.5202 21.2309L15.3901 21.3955L15.2573 21.5572L15.1212 21.7158L14.983 21.8721L14.8437 22.0267L14.7033 22.1782L14.563 22.3286L14.4226 22.4771L14.2833 22.6245L14.1456 22.7707L14.0096 22.9163L13.8762 23.0613L13.7461 23.2057L13.6198 23.3496L13.4978 23.4934L13.3806 23.6366L13.2694 23.7792L13.1636 23.9225L13.0643 24.0657L12.9725 24.2089L12.8883 24.3521L12.8116 24.4954L12.7436 24.6392L12.6842 24.7842L12.0644 24.4835L12.14 24.2998L12.2248 24.1209L12.3176 23.9462L12.418 23.7757L12.5249 23.6093L12.6378 23.4458L12.756 23.2854L12.8791 23.1273L13.006 22.9716L13.1366 22.8183L13.27 22.6667L13.4055 22.5163L13.5431 22.3672L13.6819 22.2186L13.8217 22.0706L13.961 21.9232L14.0998 21.7759L14.2374 21.6279L14.374 21.4799L14.5079 21.3319L14.6396 21.1828L14.7676 21.0336L14.8918 20.8826L15.0116 20.7311L15.1261 20.5784L15.2351 20.4244L15.3382 20.2687L15.4349 20.1118L15.5245 19.9537L15.6071 19.7933L15.6816 19.6316L15.748 19.467L15.7469 19.4682ZM23.8705 26.1326H12.5001V25.3725H23.8705L24.2079 25.7523L23.8705 26.132V26.1326ZM23.8705 25.3725H24.2079V25.7523L23.8705 25.3725ZM23.5331 38.0845V25.7529H24.2079V38.0845L23.8705 38.4643L23.5331 38.0845ZM24.2079 38.0845V38.4643H23.8705L24.2079 38.0845ZM12.5001 37.7048H23.8705V38.4649H12.5001L12.1627 38.0851L12.5001 37.7053V37.7048ZM12.5001 38.4649H12.1627V38.0851L12.5001 38.4649ZM12.8375 25.7529V38.0845H12.1627V25.7529L12.5001 25.3731L12.8375 25.7529ZM12.1627 25.7529V25.3731H12.5001L12.1627 25.7529ZM10.7946 56.9231H25.292V57.6832H10.7946L10.4572 57.3034L10.7946 56.9237V56.9231ZM10.7946 57.6832H10.4572V57.3034L10.7946 57.6832ZM10.4572 24.632H11.132V25.6501V26.6687V27.6879V28.7071V29.7269V30.7473V31.7677V32.7882V33.8092V34.8302V35.8517V36.8733V37.8949V38.9165V39.9381V40.9603V41.9825V43.0047V44.0269V45.0491V46.0712V47.0934V48.1156V49.1372V50.1588V51.1804V52.202V53.223V54.244V55.265V56.2854V57.3058H10.4572V56.2854V55.265V54.244V53.223V52.202V51.1804V50.1588V49.1372V48.1156V47.0934V46.0712V45.0491V44.0269V43.0047V41.9825V40.9603V39.9381V38.9165V37.8949V36.8733V35.8517V34.8302V33.8092V32.7882V31.7677V30.7473V29.7269V28.7071V27.6879V26.6687V25.6501V24.632ZM15.6978 16.5978V17.3579L16.0352 16.9781L16.018 17.2663L15.9699 17.5498L15.8932 17.8274L15.7923 18.0978L15.6692 18.3628L15.5267 18.6225L15.3674 18.8781L15.193 19.1306L15.0057 19.3803L14.807 19.6275L14.5986 19.8729L14.3827 20.1166L14.1602 20.3591L13.9335 20.6003L13.7046 20.8404L13.474 21.0799L13.2451 21.3177L13.0189 21.5548L12.797 21.7913L12.5816 22.0261L12.3743 22.2596L12.1772 22.492L11.9926 22.7226L11.8215 22.9508L11.6654 23.1766L11.5272 23.3989L11.4079 23.6176L11.3086 23.8315L11.2308 24.0395L11.1752 24.2422L11.1418 24.4383L11.1304 24.6303H10.4556L10.4723 24.3408L10.5209 24.0568L10.5976 23.7786L10.6985 23.507L10.8216 23.2414L10.9641 22.9805L11.1234 22.7244L11.2972 22.4718L11.4846 22.2216L11.6838 21.9738L11.8916 21.7283L12.1076 21.4841L12.33 21.241L12.5568 20.9997L12.7857 20.7596L13.0157 20.5201L13.2446 20.2824L13.4708 20.0453L13.6927 19.8093L13.9081 19.5746L14.1154 19.341L14.3119 19.1093L14.4971 18.8793L14.6683 18.6511L14.8237 18.4258L14.9619 18.2035L15.0813 17.9854L15.1806 17.7721L15.2578 17.5647L15.3134 17.3632L15.3469 17.1677L15.3582 16.9769L15.6956 16.5972L15.6978 16.5978ZM15.3604 16.9775V16.5978H15.6978L15.3604 16.9775ZM20.5475 16.9448H19.8727L20.2101 17.3246H19.9251L19.6681 17.3252L19.4365 17.3258L19.2297 17.3264L19.0456 17.327L18.882 17.3282L18.7368 17.3293L18.6083 17.3305L18.4949 17.3317L18.3945 17.3329L18.306 17.3341L18.2261 17.3359L18.1532 17.3371L18.0862 17.3388L18.0225 17.34L17.9615 17.3418L17.8989 17.3436L17.8352 17.3448L17.7666 17.3466L17.6932 17.3478L17.6122 17.3495L17.521 17.3507L17.4189 17.3519L17.3045 17.3531L17.1749 17.3543L17.0291 17.3555L16.8645 17.3567L16.6788 17.3573L16.4715 17.3579L16.2398 17.3585L15.9823 17.3591H15.6967V16.599H15.9818L16.2388 16.5984L16.4704 16.5978L16.6771 16.5972L16.8612 16.5966L17.0248 16.5954L17.1701 16.5942L17.2985 16.593L17.4125 16.5918L17.5123 16.5906L17.6009 16.5894L17.6808 16.5877L17.7531 16.5865L17.8201 16.5847L17.8838 16.5835L17.9448 16.5817L18.0074 16.5799L18.0711 16.5787L18.1391 16.577L18.2126 16.5758L18.2935 16.574L18.3848 16.5728L18.4863 16.5716L18.6007 16.5704L18.7303 16.5692L18.8761 16.568L19.0407 16.5669L19.2259 16.5663L19.4332 16.5657L19.6648 16.5651L19.9224 16.5645H20.208L20.5454 16.9442L20.5475 16.9448ZM20.2101 16.5651H20.5475V16.9448L20.2101 16.5651ZM25.6289 24.5524H24.954L24.9427 24.3658L24.9082 24.1738L24.8504 23.9753L24.7705 23.7697L24.6679 23.5581L24.5443 23.3412L24.4012 23.1207L24.2398 22.8961L24.0622 22.6691L23.8705 22.4397L23.6664 22.2085L23.4516 21.9761L23.2286 21.742L22.9986 21.5066L22.7643 21.2701L22.5267 21.033L22.2881 20.7947L22.0506 20.5558L21.8157 20.3157L21.5857 20.0744L21.3617 19.8319L21.1457 19.5871L20.94 19.341L20.7462 19.0926L20.5659 18.8418L20.4007 18.5875L20.2533 18.3289L20.1254 18.0651L20.0201 17.7953L19.9407 17.5189L19.89 17.2354L19.8722 16.9466H20.547L20.5583 17.1332L20.5929 17.3252L20.6507 17.5237L20.7306 17.7293L20.8331 17.9409L20.9568 18.1578L21.0998 18.3783L21.2613 18.6029L21.4389 18.8299L21.6305 19.0593L21.8346 19.2905L22.0495 19.5229L22.2725 19.757L22.5025 19.9924L22.7368 20.2289L22.9738 20.466L23.2124 20.7043L23.4499 20.9432L23.6848 21.1833L23.9148 21.4246L24.1388 21.6671L24.3548 21.912L24.5605 22.158L24.7543 22.4064L24.9346 22.6572L25.0998 22.9116L25.2472 23.1701L25.3752 23.4339L25.4804 23.7038L25.5598 23.9801L25.6105 24.2636L25.6284 24.5524H25.6289ZM24.954 57.3034V24.5524H25.6289V57.3034L25.2915 57.6832L24.954 57.3034ZM25.6289 57.3034V57.6832H25.2915L25.6289 57.3034ZM16.0347 6.49474V16.9775H15.3598V6.49474L15.6973 6.11498L16.0347 6.49474ZM15.3598 6.49474V6.11498H15.6973L15.3598 6.49474ZM20.2096 6.87449H15.6967V6.11439H20.2096L20.547 6.49415L20.2096 6.8739V6.87449ZM20.2096 6.11439H20.547V6.49415L20.2096 6.11439ZM19.8722 16.9442V6.49415H20.547V16.9442H19.8722ZM15.2583 5.61756L15.9067 6.1964L15.4878 6.79248L14.8394 6.21364L14.7114 5.91649L15.2583 5.61756ZM14.8394 6.21364L14.712 6.10013L14.7114 5.91649L14.8394 6.21364ZM15.3836 4.66609L15.3863 5.91471L14.7114 5.91649L14.7087 4.66788L14.8556 4.35349L15.3836 4.66609ZM14.7087 4.66788L14.7082 4.467L14.8551 4.35349L14.7082 4.66788H14.7087ZM15.8878 4.47711L15.2367 4.98048L14.8556 4.35349L15.5067 3.85013L15.6973 3.78356L15.8878 4.47711ZM15.5067 3.85013L15.5925 3.78356H15.6973L15.5067 3.85013ZM20.2101 4.54367H15.6973V3.78356H20.2101L20.4007 3.85013L20.2101 4.54367ZM20.2101 3.78356H20.3149L20.4007 3.85013L20.2101 3.78356ZM20.6669 4.9775L20.019 4.47711L20.4002 3.85013L21.048 4.35052L21.1949 4.66372L20.6669 4.97691V4.9775ZM21.048 4.35052L21.1949 4.46403V4.66431L21.048 4.35112V4.35052ZM20.52 5.9153V4.66372H21.1949V5.9153L21.0669 6.21304L20.52 5.9153ZM21.1949 5.9153V6.09894L21.0669 6.21304L21.1949 5.9153ZM20.0006 6.1964L20.6485 5.61756L21.0675 6.21304L20.4196 6.79189L20.0006 6.1964ZM16.6793 0.680154V4.16272H16.0045V0.680154L16.3419 0.300399L16.6793 0.680154ZM16.0045 0.680154V0.300399H16.3419L16.0045 0.680154ZM19.565 1.05991H16.3419V0.299805H19.565L19.9024 0.679559L19.565 1.05931V1.05991ZM19.565 0.299805H19.9024V0.679559L19.565 0.299805ZM19.2275 4.16272V0.680154H19.9024V4.16272H19.2275Z" fill="#7DA00C"/>
<path d="M8.16533 80.5063C7.73995 80.5063 7.20537 80.0553 6.5616 79.1527C5.91783 78.2508 5.27677 77.165 4.63897 75.8962C4.00063 74.6274 3.48127 73.464 3.08033 72.4056C2.80109 73.4504 2.47296 74.7394 2.09593 76.2725C1.88949 77.1407 1.59178 78.3213 1.2028 79.8141C0.886614 79.8141 0.607374 79.7157 0.364533 79.519C0.121692 79.3222 0 79.0816 0 78.7966C0 78.5933 0.0852932 78.2199 0.255336 77.6771C1.06915 74.855 1.81615 72.4228 2.49686 70.3806C3.17704 68.3389 3.96695 66.1782 4.86606 63.8983C4.40428 63.9795 4.00606 64.0986 3.67195 64.2545C3.33784 64.4104 2.97657 64.6036 2.58759 64.8341C2.3567 64.9835 2.2111 65.0581 2.15026 65.0581C2.06496 65.0581 1.94979 64.99 1.80365 64.8543C1.65806 64.7185 1.58526 64.603 1.58526 64.5082C3.14064 63.762 4.5075 63.3887 5.68585 63.3887C6.43936 63.3887 7.16843 63.5244 7.87305 63.7958C8.57767 64.0672 9.15788 64.488 9.61368 65.0575C10.0689 65.627 10.2971 66.3394 10.2971 67.1946C10.2971 68.4018 9.8625 69.3346 8.99381 69.993C8.12513 70.6508 7.17712 71.0852 6.15089 71.2956C5.12411 71.5054 4.24021 71.6109 3.49865 71.6109C3.62034 71.855 3.73226 72.0791 3.83602 72.2823C3.93924 72.4862 4.03323 72.6687 4.11798 72.8317C4.6406 73.8765 5.09912 74.7382 5.49462 75.4162C5.88903 76.0947 6.38123 76.8106 6.97068 77.5633C7.55958 78.3159 8.26801 79.0727 9.09432 79.8325C9.02152 80.0091 8.89059 80.1656 8.70208 80.3007C8.51411 80.4364 8.33428 80.5045 8.16479 80.5045L8.16533 80.5063ZM3.37153 71.2867C4.33148 71.2186 5.24309 71.0147 6.10525 70.6757C6.96796 70.3367 7.67856 69.8413 8.23813 69.19C8.79715 68.5381 9.07639 67.7315 9.07639 66.7679C9.07639 65.7367 8.76347 64.987 8.13708 64.5194C7.51178 64.0512 6.73707 63.8171 5.81352 63.8171C5.08445 65.4457 4.27064 67.9354 3.37098 71.2867H3.37153ZM10.9539 78.2472C10.7839 78.2472 10.6443 78.1998 10.5345 78.105C10.4253 78.0101 10.3705 77.8744 10.3705 77.6978C10.3705 77.4809 10.4856 77.2877 10.7165 77.1176C10.9474 76.9481 11.1843 76.8634 11.4271 76.8634C11.7428 76.8634 11.9008 77.0264 11.9008 77.3517C11.9008 77.5556 11.8009 77.7553 11.6004 77.9521C11.4 78.1488 11.1843 78.2472 10.9534 78.2472H10.9539ZM15.3832 78.6946C14.885 78.6946 14.5205 78.5251 14.2891 78.1862C14.0582 77.8472 13.943 77.3991 13.943 76.8427C13.943 76.2862 14.0462 75.703 14.2532 75.0926C14.4596 74.4822 14.7269 73.9731 15.0551 73.566C15.3832 73.1588 15.7113 72.955 16.0395 72.955C16.1487 72.955 16.2763 72.9893 16.4219 73.0569C16.2758 73.1926 16.1003 73.4907 15.8933 73.9524C15.6869 74.414 15.5071 74.9053 15.3555 75.4274C15.2034 75.9501 15.1279 76.3739 15.1279 76.6998C15.1279 77.4732 15.3463 77.8602 15.7841 77.8602C16.0395 77.8602 16.3432 77.7109 16.6957 77.4122C17.0483 77.1135 17.3944 76.72 17.7345 76.2316C17.3944 75.9193 17.1298 75.5128 16.9418 75.0108C16.7533 74.5089 16.6593 73.9862 16.6593 73.4439C16.6593 72.7381 16.8207 72.1342 17.1423 71.6322C17.4645 71.1303 17.8991 70.879 18.4456 70.879C18.9074 70.879 19.2323 71.0176 19.4208 71.2962C19.6093 71.5741 19.7033 71.9576 19.7033 72.4459C19.7033 72.9615 19.5908 73.5417 19.3659 74.1859C19.141 74.8301 18.8465 75.4577 18.482 76.0681C18.7009 76.2038 18.9318 76.2719 19.1747 76.2719C19.5273 76.2719 19.8918 76.1534 20.2688 75.9158C20.6453 75.6787 20.9311 75.3089 21.1255 74.807L21.3439 75.0102C21.1131 75.6076 20.7849 76.0479 20.3595 76.333C19.9342 76.618 19.4968 76.7603 19.047 76.7603C18.7189 76.7603 18.4271 76.6921 18.1718 76.5564C17.7345 77.1941 17.27 77.7103 16.7778 78.1038C16.2856 78.4973 15.8211 78.694 15.3837 78.694L15.3832 78.6946ZM18.0621 75.703C18.3777 75.1738 18.633 74.6345 18.8281 74.0851C19.022 73.5352 19.1198 73.0302 19.1198 72.5686C19.1198 72.1887 19.0682 71.9036 18.9644 71.714C18.8612 71.5244 18.7308 71.4289 18.5727 71.4289C18.4027 71.4289 18.2294 71.5208 18.0534 71.7039C17.8768 71.887 17.7312 72.1377 17.616 72.4566C17.5003 72.7754 17.4427 73.1251 17.4427 73.5049C17.4427 73.9257 17.4943 74.3293 17.5976 74.7157C17.7008 75.1021 17.8562 75.4316 18.0626 75.703H18.0621ZM22.2909 78.6543C21.7927 78.6543 21.4249 78.4641 21.188 78.0848C20.9506 77.7049 20.8327 77.1959 20.8327 76.5582C20.8327 75.3374 21.2092 73.6786 21.9633 71.5824C22.7162 69.4863 23.5578 67.597 24.4878 65.9145C25.4174 64.232 26.0883 63.3904 26.5017 63.3904C26.6718 63.3904 26.8147 63.5564 26.9298 63.8889C27.045 64.2213 27.1031 64.5573 27.1031 64.8963C27.1031 65.5204 26.8755 66.4396 26.4197 67.6539C25.9639 68.8682 25.3658 70.0997 24.6242 71.3477C23.8826 72.5964 23.0927 73.6069 22.255 74.3803C22.0969 75.1673 22.0176 75.8524 22.0176 76.4361C22.0176 77.4809 22.2849 78.003 22.8195 78.003C23.2693 78.003 23.7278 77.6848 24.1956 77.0471C24.6633 76.4094 25.0795 75.6426 25.444 74.7471L25.7178 74.9101C24.6725 77.4062 23.5306 78.6549 22.2914 78.6549L22.2909 78.6543ZM22.4185 73.6887C23.0867 72.9419 23.7398 72.0026 24.3781 70.8695C25.0159 69.7364 25.5353 68.6513 25.9362 67.6136C26.3371 66.5753 26.5376 65.8262 26.5376 65.3645C26.5376 65.147 26.4952 65.0392 26.4099 65.0392C26.2399 65.0392 25.8906 65.5038 25.362 66.433C24.8334 67.3623 24.2895 68.499 23.7305 69.8425C23.1715 71.1854 22.7342 72.4678 22.418 73.6887H22.4185ZM28.5792 69.2516C28.3608 69.2516 28.1815 69.1941 28.0414 69.0786C27.9017 68.9636 27.8317 68.7971 27.8317 68.5801C27.8317 68.3087 27.9778 68.064 28.269 67.8477C28.5607 67.6307 28.8584 67.5223 29.1621 67.5223C29.5631 67.5223 29.7635 67.7327 29.7635 68.1534C29.7635 68.4112 29.6391 68.659 29.3903 68.896C29.1415 69.1337 28.8709 69.2522 28.5792 69.2522V69.2516ZM26.392 78.5731C25.9422 78.5731 25.5961 78.4137 25.3533 78.0949C25.1099 77.776 24.9887 77.3659 24.9887 76.8634C24.9887 76.3342 25.1256 75.6017 25.3984 74.6653C25.6716 73.7289 26.0122 72.9082 26.4192 72.2023C26.8261 71.4965 27.2243 71.1439 27.6127 71.1439C27.7225 71.1439 27.8164 71.1842 27.8952 71.266C27.974 71.3472 28.0142 71.4562 28.0142 71.5913C28.0142 71.7816 27.8197 72.2361 27.4307 72.955C27.0298 73.7017 26.7109 74.3696 26.4735 74.9599C26.2366 75.5501 26.1182 76.1096 26.1182 76.6388C26.1182 77.1135 26.1883 77.4359 26.3279 77.606C26.4675 77.7755 26.6957 77.8602 27.0113 77.8602C27.9593 77.8602 28.8948 76.8219 29.8184 74.7465L29.9825 74.9498C29.6424 76.09 29.1415 76.9784 28.4787 77.616C27.8164 78.2537 27.1211 78.5726 26.392 78.5726V78.5731ZM30.73 78.6952C30.2318 78.6952 29.8673 78.5257 29.6359 78.1867C29.405 77.8478 29.2898 77.3997 29.2898 76.8432C29.2898 76.2868 29.393 75.7036 29.6 75.0932C29.8064 74.4828 30.0737 73.9737 30.4019 73.5666C30.73 73.1594 31.0581 72.9556 31.3863 72.9556C31.4955 72.9556 31.6231 72.9899 31.7687 73.0575C31.6226 73.1932 31.4471 73.4913 31.2401 73.953C31.0337 74.4146 30.8544 74.9059 30.7023 75.428C30.5507 75.9507 30.4747 76.3745 30.4747 76.7004C30.4747 77.4738 30.6936 77.8608 31.1309 77.8608C31.3863 77.8608 31.6899 77.7115 32.042 77.4128C32.3946 77.1141 32.7406 76.7206 33.0807 76.2322C32.7406 75.9199 32.4766 75.5134 32.2881 75.0114C32.1001 74.5095 32.0056 73.9867 32.0056 73.4445C32.0056 72.7387 32.1669 72.1348 32.4886 71.6328C32.8107 71.1308 33.2448 70.8796 33.7919 70.8796C34.2536 70.8796 34.5785 71.0182 34.767 71.2968C34.955 71.5747 35.0495 71.9582 35.0495 72.4465C35.0495 72.9621 34.9371 73.5423 34.7122 74.1865C34.4872 74.8307 34.1928 75.4583 33.8283 76.0687C34.0466 76.2044 34.2775 76.2725 34.5209 76.2725C34.8735 76.2725 35.238 76.154 35.6145 75.9164C35.991 75.6793 36.2768 75.3095 36.4713 74.8075L36.6896 75.0108C36.4588 75.6082 36.1306 76.0485 35.7052 76.3336C35.2799 76.6186 34.8425 76.7609 34.3927 76.7609C34.0646 76.7609 33.7728 76.6927 33.5175 76.557C33.0802 77.1947 32.6157 77.7109 32.1235 78.1044C31.6313 78.4979 31.1668 78.6946 30.7295 78.6946L30.73 78.6952ZM33.4094 75.7036C33.725 75.1744 33.9804 74.6351 34.1749 74.0857C34.3688 73.5358 34.4666 73.0308 34.4666 72.5692C34.4666 72.1893 34.415 71.9042 34.3118 71.7146C34.2085 71.5249 34.0782 71.4295 33.9201 71.4295C33.75 71.4295 33.5767 71.5214 33.4007 71.7045C33.2247 71.8876 33.0785 72.1383 32.9634 72.4572C32.8477 72.776 32.7901 73.1256 32.7901 73.5055C32.7901 73.9263 32.8417 74.3299 32.9449 74.7163C33.0481 75.1027 33.2035 75.4322 33.4099 75.7036H33.4094Z" fill="#7DA00C"/>
</svg>
