<svg width="32" height="32" viewBox="0 0 32 32" fill="none" xmlns="http://www.w3.org/2000/svg">
<path d="M4 24.7002C4 24.4241 4.22386 24.2002 4.5 24.2002H27.5C27.7761 24.2002 28 24.4241 28 24.7002C28 24.9763 27.7761 25.2002 27.5 25.2002H4.5C4.22386 25.2002 4 24.9763 4 24.7002Z" fill="#688800"/>
<path d="M4 13.0996C4 12.8235 4.22386 12.5996 4.5 12.5996H27.5C27.7761 12.5996 28 12.8235 28 13.0996C28 13.3758 27.7761 13.5996 27.5 13.5996H4.5C4.22386 13.5996 4 13.3758 4 13.0996Z" fill="#688800"/>
<path d="M4 18.9004C4 18.6242 4.22386 18.4004 4.5 18.4004H27.5C27.7761 18.4004 28 18.6242 28 18.9004C28 19.1765 27.7761 19.4004 27.5 19.4004H4.5C4.22386 19.4004 4 19.1765 4 18.9004Z" fill="#688800"/>
<path d="M4 7.2998C4 7.02366 4.22386 6.7998 4.5 6.7998H27.5C27.7761 6.7998 28 7.02366 28 7.2998C28 7.57595 27.7761 7.7998 27.5 7.7998H4.5C4.22386 7.7998 4 7.57595 4 7.2998Z" fill="#688800"/>
</svg>
