<svg width="44" height="42" viewBox="0 0 44 42" fill="none" xmlns="http://www.w3.org/2000/svg">
<g clip-path="url(#clip0_425_21)">
<path d="M26.7535 36.709V37.9339C26.7535 38.9086 26.0105 39.7195 25.0437 39.8575L24.7304 40.9703C24.5604 41.5741 23.9964 41.9968 23.3429 41.9968H20.2367C19.5833 41.9968 19.0193 41.5741 18.8492 40.9703L18.5449 39.8575C17.5691 39.7109 16.8262 38.9086 16.8262 37.9253V36.7004C16.8262 36.0448 17.3722 35.5186 18.0525 35.5186H25.5271C26.2075 35.5272 26.7535 36.0534 26.7535 36.709ZM32.5094 20.1986C32.5094 22.9849 31.3636 25.5123 29.5017 27.3669C28.0873 28.7816 27.1742 30.5845 26.8699 32.5081C26.7356 33.3362 25.9926 33.9486 25.1154 33.9486H18.4643C17.596 33.9486 16.8441 33.3448 16.7187 32.5167C16.4054 30.5931 15.4834 28.7644 14.0691 27.3583C12.2429 25.5296 11.1061 23.0453 11.0792 20.3108C11.0166 14.5658 15.7609 9.91632 21.7227 9.87319C27.6755 9.83006 32.5094 14.4709 32.5094 20.1986ZM23.0028 13.9447C23.0028 13.3064 22.4657 12.7802 21.7943 12.7802C17.5333 12.7802 14.0601 16.1185 14.0601 20.2331C14.0601 20.8715 14.5972 21.3977 15.2686 21.3977C15.931 21.3977 16.4771 20.8801 16.4771 20.2331C16.4771 17.4038 18.8671 15.1092 21.7943 15.1092C22.4657 15.1092 23.0028 14.5917 23.0028 13.9447Z" fill="black"/>
</g>
<defs>
<clipPath id="clip0_425_21">
<rect width="43.5049" height="41.9229" fill="white" transform="translate(0.0418701 0.0739441)"/>
</clipPath>
</defs>
</svg>
