<svg xmlns="http://www.w3.org/2000/svg" width="38" height="32" fill="none"><rect id="backgroundrect" width="100%" height="100%" x="0" y="0" fill="none" stroke="none"/>

<defs>
<clipPath id="clip0_430_11">
<rect width="37.34600067138672" height="31.783100128173828" fill="white" y="0.10687299817800522" x="0.41381800174713135" id="svg_1"/>
</clipPath>
</defs>
<g class="currentLayer" style=""><title>Layer 1</title><g clip-path="url(#clip0_430_11)" id="svg_2" class="selected" fill="#ffffff" fill-opacity="1">
<path d="M16.1719 12.4156C14.1964 12.4156 13.0815 13.9909 12.8816 15.4545C12.7429 16.4706 12.3736 17.479 12.0238 18.2584H16.1719C17.9818 18.2584 19.4543 16.9479 19.4543 15.337C19.4543 13.7262 17.9818 12.4156 16.1719 12.4156Z" fill="#ffffff" id="svg_3" fill-opacity="1"/>
<path d="M36.6657 0.0671997H1.50794C0.903693 0.0671997 0.413818 0.503198 0.413818 1.04099V18.2584H9.63893C9.98599 17.5986 10.5497 16.3876 10.7093 15.2195C10.8836 13.9435 11.4819 12.7707 12.3939 11.9175C13.3929 10.9829 14.7347 10.4681 16.1719 10.4681C16.4344 10.4681 16.6924 10.4857 16.9451 10.5176L23.3489 4.81806C23.9688 4.26624 24.7931 3.96236 25.6698 3.96236C26.5466 3.96236 27.3709 4.26624 27.9908 4.81812C28.6107 5.36981 28.9523 6.10346 28.9523 6.88372C28.9523 7.66405 28.6107 8.39764 27.9907 8.94945L21.5869 14.649C21.6227 14.8739 21.6425 15.1034 21.6425 15.3371C21.6425 16.4323 21.2338 17.4441 20.5454 18.2584H37.7598V1.04099C37.7598 0.503133 37.2699 0.0671997 36.6657 0.0671997Z" fill="#ffffff" id="svg_4" fill-opacity="1"/>
<path d="M20.7339 12.654L26.4434 7.57227C26.6502 7.38828 26.764 7.14373 26.764 6.88373C26.764 6.62367 26.6502 6.37918 26.4434 6.19526C26.2367 6.01122 25.962 5.90994 25.6698 5.90994C25.3776 5.90994 25.1029 6.01122 24.8963 6.19513L19.1866 11.2769C19.8002 11.6389 20.3271 12.1079 20.7339 12.654Z" fill="#ffffff" id="svg_5" fill-opacity="1"/>
<path d="M0.413818 23.7765C0.413818 24.3143 0.903693 24.7503 1.50794 24.7503H36.6657C37.2699 24.7503 37.7598 24.3143 37.7598 23.7765V20.206H0.413818V23.7765Z" fill="#ffffff" id="svg_6" fill-opacity="1"/>
<path d="M24.5574 28.6455H23.4633V26.6979H14.7103V28.6455H13.6162C13.012 28.6455 12.5221 29.0815 12.5221 29.6192C12.5221 30.157 13.012 30.593 13.6162 30.593H24.5574C25.1616 30.593 25.6515 30.157 25.6515 29.6192C25.6515 29.0815 25.1616 28.6455 24.5574 28.6455Z" fill="#ffffff" id="svg_7" fill-opacity="1"/>
</g></g></svg>