<svg width="41" height="35" viewBox="0 0 41 35" fill="none" xmlns="http://www.w3.org/2000/svg">
<g clip-path="url(#clip0_425_55)">
<path d="M6.12034 4.95297H34.4345C37.516 4.95297 40.0236 7.08706 40.0236 9.7102V24.786C40.0236 27.4091 37.516 29.5432 34.4345 29.5432H6.12034C3.03886 29.5432 0.531254 27.4091 0.531254 24.786V9.7102C0.531254 7.08706 3.03886 4.95297 6.12034 4.95297ZM25.6914 12.5211L31.5713 17.5251L26.3424 21.9751C25.8904 22.3598 25.8904 22.9834 26.3424 23.3674C26.7936 23.7521 27.5264 23.7521 27.9784 23.3674L34.0257 18.2209C34.4777 17.8363 34.4777 17.2133 34.0257 16.8286L27.3282 11.1288C26.8762 10.7441 26.1434 10.7441 25.6914 11.1288C25.2402 11.5128 25.2402 12.1364 25.6914 12.5211ZM16.1477 10.2045L22.2659 24.9475C22.4788 25.4608 23.1398 25.7293 23.7422 25.5481C24.3447 25.367 24.6609 24.8044 24.448 24.2917L18.3298 9.54871C18.1169 9.03603 17.4566 8.76689 16.8535 8.94807C16.251 9.12925 15.9348 9.69182 16.1477 10.2045ZM6.52915 17.6676L13.2266 23.3674C13.6786 23.7521 14.4114 23.7521 14.8634 23.3674C15.3146 22.9834 15.3146 22.3598 14.8634 21.9751L8.98353 16.9711L14.2124 12.5211C14.6644 12.1364 14.6644 11.5128 14.2124 11.1288C13.7612 10.7441 13.0284 10.7441 12.5764 11.1288L6.52915 16.2753C6.07715 16.6599 6.07715 17.2829 6.52915 17.6676Z" fill="white"/>
</g>
<defs>
<clipPath id="clip0_425_55">
<rect width="39.4923" height="33.6098" fill="white" transform="matrix(-1 0 0 1 40.0236 0.443207)"/>
</clipPath>
</defs>
</svg>
