<svg width="25" height="24" viewBox="0 0 25 24" fill="none" xmlns="http://www.w3.org/2000/svg">
<g clip-path="url(#clip0_438_105)">
<path d="M21.6319 0H3.36978C1.50928 0 0.000976562 1.42445 0.000976562 3.18164V20.4293C0.000976562 22.1865 1.50922 23.611 3.36978 23.611H12.3766L12.3919 15.1737H10.071C9.76937 15.1737 9.52456 14.9434 9.52339 14.6585L9.51227 11.9388C9.5111 11.6524 9.75665 11.4196 10.0599 11.4196H12.3766V8.7917C12.3766 5.74203 14.3488 4.08147 17.2293 4.08147H19.593C19.8954 4.08147 20.1406 4.31302 20.1406 4.5987V6.89195C20.1406 7.17751 19.8956 7.40901 19.5933 7.40919L18.1427 7.40982C16.5762 7.40982 16.2729 8.11286 16.2729 9.14461V11.4197H19.715C20.043 11.4197 20.2975 11.6902 20.2589 11.9978L19.9175 14.7175C19.8849 14.9777 19.6512 15.1738 19.3737 15.1738H16.2882L16.2729 23.6111H21.6321C23.4926 23.6111 25.0008 22.1867 25.0008 20.4295V3.18164C25.0007 1.42445 23.4925 0 21.6319 0Z" fill="white"/>
</g>
<defs>
<clipPath id="clip0_438_105">
<rect width="25" height="23.6111" fill="white"/>
</clipPath>
</defs>
</svg>
