<svg width="25" height="24" viewBox="0 0 25 24" fill="none" xmlns="http://www.w3.org/2000/svg">
<g clip-path="url(#clip0_438_99)">
<path d="M21.3379 0H3.66211C1.64299 0 0 1.55171 0 3.45866V20.1525C0 22.0594 1.64299 23.6111 3.66211 23.6111H21.3379C23.357 23.6111 25 22.0594 25 20.1525V3.45866C25 1.55171 23.357 0 21.3379 0ZM12.5488 17.985C8.91399 17.985 5.95703 15.1923 5.95703 11.7594C5.95703 8.32654 8.91399 5.53385 12.5488 5.53385C16.1837 5.53385 19.1406 8.32654 19.1406 11.7594C19.1406 15.1923 16.1837 17.985 12.5488 17.985ZM19.873 6.91732C18.6615 6.91732 17.6758 5.98636 17.6758 4.84212C17.6758 3.69788 18.6615 2.76693 19.873 2.76693C21.0846 2.76693 22.0703 3.69788 22.0703 4.84212C22.0703 5.98636 21.0846 6.91732 19.873 6.91732Z" fill="white"/>
<path d="M19.873 4.15039C19.4689 4.15039 19.1406 4.46041 19.1406 4.84212C19.1406 5.22384 19.4689 5.53385 19.873 5.53385C20.2772 5.53385 20.6055 5.22384 20.6055 4.84212C20.6055 4.46041 20.2772 4.15039 19.873 4.15039Z" fill="white"/>
<path d="M12.5488 6.91748C9.72214 6.91748 7.42188 9.08995 7.42188 11.7596C7.42188 14.4293 9.72214 16.6017 12.5488 16.6017C15.3755 16.6017 17.6758 14.4293 17.6758 11.7596C17.6758 9.08995 15.3755 6.91748 12.5488 6.91748Z" fill="white"/>
</g>
<defs>
<clipPath id="clip0_438_99">
<rect width="25" height="23.6111" fill="white"/>
</clipPath>
</defs>
</svg>
