<svg width="25" height="24" viewBox="0 0 25 24" fill="none" xmlns="http://www.w3.org/2000/svg">
<g clip-path="url(#clip0_438_103)">
<path d="M21.3379 0H3.66211C1.64299 0 0 1.55171 0 3.45866V20.1525C0 22.0594 1.64299 23.6111 3.66211 23.6111H21.3379C23.357 23.6111 25 22.0594 25 20.1525V3.45866C25 1.55171 23.357 0 21.3379 0ZM8.83789 18.7229H5.9082V9.03863H8.83789V18.7229ZM8.83789 7.65516H5.9082V4.88824H8.83789V7.65516ZM19.0918 18.7229H16.1621V13.189C16.1621 12.4263 15.5048 11.8056 14.6973 11.8056C13.8897 11.8056 13.2324 12.4263 13.2324 13.189V18.7229H10.3027V9.03863H13.2324V9.56013C13.9999 9.33478 14.4985 9.03863 15.4297 9.03863C17.4166 9.04061 19.0918 10.724 19.0918 12.7135V18.7229Z" fill="white"/>
</g>
<defs>
<clipPath id="clip0_438_103">
<rect width="25" height="23.6111" fill="white"/>
</clipPath>
</defs>
</svg>
