<svg width="36" height="33" viewBox="0 0 36 33" fill="none" xmlns="http://www.w3.org/2000/svg">
<g clip-path="url(#clip0_430_24)">
<path d="M19.2655 0.565918H3.98624C2.33788 0.565918 0.996826 1.84459 0.996826 3.41629V8.16691H15.9439L19.2655 0.565918ZM5.97918 5.31654C5.42886 5.31654 4.98271 4.89113 4.98271 4.36641C4.98271 3.84169 5.42886 3.41629 5.97918 3.41629C6.5295 3.41629 6.97565 3.84169 6.97565 4.36641C6.97565 4.89113 6.5295 5.31654 5.97918 5.31654ZM9.96507 5.31654C9.41475 5.31654 8.9686 4.89113 8.9686 4.36641C8.9686 3.84169 9.41475 3.41629 9.96507 3.41629C10.5154 3.41629 10.9615 3.84169 10.9615 4.36641C10.9615 4.89113 10.5154 5.31654 9.96507 5.31654ZM13.951 5.31654C13.4006 5.31654 12.9545 4.89113 12.9545 4.36641C12.9545 3.84169 13.4006 3.41629 13.951 3.41629C14.5013 3.41629 14.9474 3.84169 14.9474 4.36641C14.9474 4.89113 14.5013 5.31654 13.951 5.31654Z" fill="black"/>
<path d="M20.9927 15.5062V18.9983C20.9927 19.523 20.5466 19.9484 19.9962 19.9484H16.0103C15.46 19.9484 15.0138 19.523 15.0138 18.9983V15.5062C13.7835 16.3878 13.0209 17.7849 13.0209 19.3004C13.0209 21.1091 14.0819 22.736 15.7899 23.5462C16.1284 23.7067 16.3424 24.0362 16.3424 24.3968V32.9968H19.664V24.3968C19.664 24.0363 19.8781 23.7067 20.2166 23.5462C21.9245 22.736 22.9856 21.1091 22.9856 19.3004C22.9856 17.7849 22.223 16.3878 20.9927 15.5062Z" fill="black"/>
<path d="M32.0203 0.565918H21.4245L17.528 9.48251C17.3733 9.83659 17.0105 10.0672 16.6082 10.0672H0.996826V30.1464C0.996826 31.7181 2.33788 32.9968 3.98624 32.9968H14.3495V24.9558C12.2858 23.7499 11.028 21.6336 11.028 19.3005C11.028 16.492 12.8966 13.9742 15.6778 13.0354C15.9828 12.9323 16.3212 12.977 16.5855 13.1552C16.8497 13.3332 17.0068 13.6225 17.0068 13.931V18.0482H18.9998V13.931C18.9998 13.6225 19.1569 13.3332 19.4212 13.1551C19.6854 12.977 20.0239 12.9323 20.3288 13.0353C23.11 13.9742 24.9786 16.4919 24.9786 19.3004C24.9786 21.6336 23.7207 23.7499 21.657 24.9558V32.9968H32.0203C33.6687 32.9968 35.0097 31.7181 35.0097 30.1464V3.41629C35.0097 1.84459 33.6687 0.565918 32.0203 0.565918ZM8.63644 14.8178H5.97918C5.42886 14.8178 4.98271 14.3924 4.98271 13.8677C4.98271 13.3429 5.42886 12.9175 5.97918 12.9175H8.63644C9.18676 12.9175 9.63291 13.3429 9.63291 13.8677C9.63291 14.3924 9.18676 14.8178 8.63644 14.8178Z" fill="black"/>
</g>
<defs>
<clipPath id="clip0_430_24">
<rect width="34.0129" height="32.4309" fill="white" transform="translate(0.996826 0.565918)"/>
</clipPath>
</defs>
</svg>
